{
	"accessors": [
		{
			"bufferView": 0,
			"byteOffset": 0,
			"componentType": 5126,
			"count": 83034,
			"max": [
				0.4725911021232605,
				0.5197135806083679,
				0.36564648151397705
			],
			"min": [
				-0.4018060564994812,
				-0.4415794014930725,
				-0.49394160509109497
			],
			"type": "VEC3"
		},
		{
			"bufferView": 1,
			"byteOffset": 0,
			"componentType": 5126,
			"count": 83034,
			"type": "VEC3"
		},
		{
			"bufferView": 2,
			"byteOffset": 0,
			"componentType": 5126,
			"count": 83034,
			"type": "VEC2"
		},
		{
			"bufferView": 3,
			"byteOffset": 0,
			"componentType": 5125,
			"count": 83034,
			"type": "SCALAR"
		}
	],
	"asset": {
		"extras": {
			"created": "Sat Jan 29 19:00:48 2022"
		},
		"generator": "Gestaltor 2021.7.1 Corn Community",
		"version": "2.0"
	},
	"bufferViews": [
		{
			"buffer": 0,
			"byteLength": 996408,
			"byteOffset": 0
		},
		{
			"buffer": 0,
			"byteLength": 996408,
			"byteOffset": 996408
		},
		{
			"buffer": 0,
			"byteLength": 664272,
			"byteOffset": 1992816
		},
		{
			"buffer": 0,
			"byteLength": 332136,
			"byteOffset": 2657088
		}
	],
	"buffers": [
		{
			"byteLength": 2989224,
			"uri": "1643422846453.bin"
		}
	],
	"extensionsUsed": [
		"Arc3DTech",
		"MTL"
	],
	"images": [
		{
			"mimeType": "image/png",
			"name": "",
			"uri": "1643422846453.png"
		}
	],
	"materials": [
		{
			"alphaMode": "OPAQUE",
			"doubleSided": true,
			"extensions": {
				"MTL": {
					"Ka": [
						0.429,
						0.535,
						0.382
					],
					"Kd": [
						0.429,
						0.535,
						0.382
					],
					"Ks": [
						0.0,
						0.0,
						0.0
					],
					"Ns": 5.0,
					"d": 1.0,
					"illum": 2.0,
					"map_Kd": "1643422846453.png"
				}
			},
			"name": "",
			"pbrMetallicRoughness": {
				"baseColorTexture": {
					"index": 0,
					"texCoord": 0
				},
				"metallicFactor": 1.0,
				"roughnessFactor": 1.0
			}
		}
	],
	"meshes": [
		{
			"extensions": {
				"Arc3DTech": {
					"Date": "1 29,2022 13:20:46",
					"Model": "Object",
					"ScanAngle": "-180.0;0.0;0.0;180.0"
				}
			},
			"name": "ArcsoftMeshes0",
			"primitives": [
				{
					"attributes": {
						"NORMAL": 1,
						"POSITION": 0,
						"TEXCOORD_0": 2
					},
					"indices": 3,
					"material": 0,
					"mode": 4
				}
			]
		}
	],
	"nodes": [
		{
			"mesh": 0,
			"name": "",
			"rotation": [
				0.9774561177219933,
				-0.06969561925345966,
				-0.014174993577793704,
				-0.19879921564683087
			],
			"scale": [
				1.0,
				1.0,
				1.0
			],
			"translation": [
				0.0,
				0.14871346950531006,
				0.0
			]
		}
	],
	"samplers": [
		{
			"magFilter": 9729,
			"minFilter": 9987,
			"name": "",
			"wrapS": 10497,
			"wrapT": 10497
		}
	],
	"scene": 0,
	"scenes": [
		{
			"nodes": [
				0
			]
		}
	],
	"textures": [
		{
			"name": "",
			"sampler": 0,
			"source": 0
		}
	]
}